<mxfile host="65bd71144e">
    <diagram id="cSsQJ0F-H9HAaAZEYwUc" name="Page-1">
        <mxGraphModel dx="3353" dy="1587" grid="1" gridSize="10" guides="1" tooltips="1" connect="1" arrows="1" fold="1" page="1" pageScale="1" pageWidth="1600" pageHeight="900" background="none" math="0" shadow="0">
            <root>
                <mxCell id="0"/>
                <mxCell id="1" parent="0"/>
                <mxCell id="211" value="coin" style="shape=folder;fontStyle=1;tabWidth=110;tabHeight=30;tabPosition=left;html=1;boundedLbl=1;labelInHeader=1;container=0;collapsible=0;fillColor=none;" parent="1" vertex="1">
                    <mxGeometry x="-10" y="10" width="240" height="290" as="geometry"/>
                </mxCell>
                <mxCell id="212" value="" style="html=1;resizeWidth=1;resizeHeight=1;fillColor=none;part=1;connectable=0;allowArrows=0;deletable=0;" parent="1" vertex="1">
                    <mxGeometry x="-10" y="40" width="239.99999999999997" height="260" as="geometry">
                        <mxPoint y="30" as="offset"/>
                    </mxGeometry>
                </mxCell>
                <mxCell id="204" value="asset" style="shape=folder;fontStyle=1;tabWidth=110;tabHeight=30;tabPosition=left;html=1;boundedLbl=1;labelInHeader=1;container=0;collapsible=0;fillColor=none;" parent="1" vertex="1">
                    <mxGeometry x="-410" y="390" width="1090" height="690" as="geometry"/>
                </mxCell>
                <mxCell id="208" value="game" style="shape=folder;fontStyle=1;tabWidth=110;tabHeight=30;tabPosition=left;html=1;boundedLbl=1;labelInHeader=1;container=1;collapsible=0;fillColor=none;" parent="1" vertex="1">
                    <mxGeometry x="250" y="10" width="820" height="290" as="geometry"/>
                </mxCell>
                <mxCell id="209" value="" style="html=1;resizeWidth=1;resizeHeight=1;fillColor=none;part=1;connectable=0;allowArrows=0;deletable=0;" parent="208" vertex="1">
                    <mxGeometry width="820" height="260" relative="1" as="geometry">
                        <mxPoint y="30" as="offset"/>
                    </mxGeometry>
                </mxCell>
                <mxCell id="96" value="Game" style="swimlane;fontStyle=1;align=center;verticalAlign=top;childLayout=stackLayout;horizontal=1;startSize=26;horizontalStack=0;resizeParent=1;resizeParentMax=0;resizeLast=0;collapsible=1;marginBottom=0;rounded=0;fillColor=#d5e8d4;strokeColor=#82b366;" parent="208" vertex="1">
                    <mxGeometry x="510" y="70" width="260" height="180" as="geometry"/>
                </mxCell>
                <mxCell id="97" value="- players: dict[turn, Player]&#10;- phases: Iterator[Phase]&#10;- current_turn: int" style="text;strokeColor=#82b366;fillColor=#d5e8d4;align=left;verticalAlign=top;spacingLeft=4;spacingRight=4;overflow=hidden;rotatable=0;points=[[0,0.5],[1,0.5]];portConstraint=eastwest;rounded=0;" parent="96" vertex="1">
                    <mxGeometry y="26" width="260" height="54" as="geometry"/>
                </mxCell>
                <mxCell id="98" value="" style="line;strokeWidth=1;fillColor=#d5e8d4;align=left;verticalAlign=middle;spacingTop=-1;spacingLeft=3;spacingRight=3;rotatable=0;labelPosition=right;points=[];portConstraint=eastwest;strokeColor=#82b366;rounded=0;" parent="96" vertex="1">
                    <mxGeometry y="80" width="260" height="8" as="geometry"/>
                </mxCell>
                <mxCell id="99" value="+ start(): None&#10;+ resolve_order(): None&#10;+ move_to_next_phase(): None&#10;+Â check_victory(): Player&#10;+ end(): bool" style="text;strokeColor=#82b366;fillColor=#d5e8d4;align=left;verticalAlign=top;spacingLeft=4;spacingRight=4;overflow=hidden;rotatable=0;points=[[0,0.5],[1,0.5]];portConstraint=eastwest;rounded=0;fontStyle=0" parent="96" vertex="1">
                    <mxGeometry y="88" width="260" height="92" as="geometry"/>
                </mxCell>
                <mxCell id="198" value="phase" style="shape=folder;fontStyle=1;tabWidth=110;tabHeight=30;tabPosition=left;html=1;boundedLbl=1;labelInHeader=1;container=1;collapsible=0;fillColor=none;" parent="1" vertex="1">
                    <mxGeometry x="740" y="340" width="750" height="360" as="geometry"/>
                </mxCell>
                <mxCell id="199" value="" style="html=1;resizeWidth=1;resizeHeight=1;fillColor=none;part=1;connectable=0;allowArrows=0;deletable=0;" parent="198" vertex="1">
                    <mxGeometry width="750" height="330" relative="1" as="geometry">
                        <mxPoint y="30" as="offset"/>
                    </mxGeometry>
                </mxCell>
                <mxCell id="109" value="&lt;p style=&quot;margin:0px;margin-top:4px;text-align:center;&quot;&gt;&lt;i&gt;&amp;lt;&amp;lt;abstract&amp;gt;&amp;gt;&lt;/i&gt;&lt;br&gt;&lt;b&gt;Phase&lt;/b&gt;&lt;/p&gt;&lt;hr size=&quot;1&quot;&gt;&lt;p style=&quot;margin:0px;margin-left:4px;&quot;&gt;- assets_in_game: Set[Asset]&lt;br&gt;&lt;/p&gt;&lt;p style=&quot;margin:0px;margin-left:4px;&quot;&gt;+ play(): bool&lt;/p&gt;" style="verticalAlign=top;align=left;overflow=fill;fontSize=12;fontFamily=Helvetica;html=1;fillColor=#d5e8d4;strokeColor=#82b366;" parent="198" vertex="1">
                    <mxGeometry x="286.32" y="53.81" width="163.68" height="86.19" as="geometry"/>
                </mxCell>
                <mxCell id="121" value="InvestmentPhase" style="swimlane;fontStyle=1;align=center;verticalAlign=top;childLayout=stackLayout;horizontal=1;startSize=26;horizontalStack=0;resizeParent=1;resizeParentMax=0;resizeLast=0;collapsible=1;marginBottom=0;rounded=0;fillColor=#f8cecc;strokeColor=#b85450;" parent="198" vertex="1">
                    <mxGeometry x="260" y="250" width="190" height="57.54639175257732" as="geometry"/>
                </mxCell>
                <mxCell id="122" value="" style="line;strokeWidth=1;fillColor=#f8cecc;align=left;verticalAlign=middle;spacingTop=-1;spacingLeft=3;spacingRight=3;rotatable=0;labelPosition=right;points=[];portConstraint=eastwest;strokeColor=#b85450;rounded=0;" parent="121" vertex="1">
                    <mxGeometry y="26" width="190" height="7.422680412371134" as="geometry"/>
                </mxCell>
                <mxCell id="123" value="+ play(Player, Set[Asset]): bool" style="text;strokeColor=#b85450;fillColor=#f8cecc;align=left;verticalAlign=top;spacingLeft=4;spacingRight=4;overflow=hidden;rotatable=0;points=[[0,0.5],[1,0.5]];portConstraint=eastwest;rounded=0;" parent="121" vertex="1">
                    <mxGeometry y="33.422680412371136" width="190" height="24.123711340206185" as="geometry"/>
                </mxCell>
                <mxCell id="124" value="Extends" style="endArrow=block;endSize=16;endFill=0;html=1;entryX=0.5;entryY=1;entryDx=0;entryDy=0;exitX=0.5;exitY=0;exitDx=0;exitDy=0;" parent="198" source="121" target="109" edge="1">
                    <mxGeometry width="160" relative="1" as="geometry">
                        <mxPoint x="325.8011320754717" y="204.1237113402062" as="sourcePoint"/>
                        <mxPoint x="412.4756603773585" y="120.61855670103093" as="targetPoint"/>
                    </mxGeometry>
                </mxCell>
                <mxCell id="105" value="PurchasePhase" style="swimlane;fontStyle=1;align=center;verticalAlign=top;childLayout=stackLayout;horizontal=1;startSize=26;horizontalStack=0;resizeParent=1;resizeParentMax=0;resizeLast=0;collapsible=1;marginBottom=0;rounded=0;fillColor=#f8cecc;strokeColor=#b85450;" parent="198" vertex="1">
                    <mxGeometry x="110.00176723332712" y="249.99865979381445" width="120.28301886792454" height="57.54639175257732" as="geometry"/>
                </mxCell>
                <mxCell id="107" value="" style="line;strokeWidth=1;fillColor=#f8cecc;align=left;verticalAlign=middle;spacingTop=-1;spacingLeft=3;spacingRight=3;rotatable=0;labelPosition=right;points=[];portConstraint=eastwest;strokeColor=#b85450;rounded=0;" parent="105" vertex="1">
                    <mxGeometry y="26" width="120.28301886792454" height="7.422680412371134" as="geometry"/>
                </mxCell>
                <mxCell id="108" value="+ play(Player): bool" style="text;strokeColor=#b85450;fillColor=#f8cecc;align=left;verticalAlign=top;spacingLeft=4;spacingRight=4;overflow=hidden;rotatable=0;points=[[0,0.5],[1,0.5]];portConstraint=eastwest;rounded=0;" parent="105" vertex="1">
                    <mxGeometry y="33.422680412371136" width="120.28301886792454" height="24.123711340206185" as="geometry"/>
                </mxCell>
                <mxCell id="113" value="Extends" style="endArrow=block;endSize=16;endFill=0;html=1;entryX=0.25;entryY=1;entryDx=0;entryDy=0;exitX=0.5;exitY=0;exitDx=0;exitDy=0;" parent="198" source="105" target="109" edge="1">
                    <mxGeometry width="160" relative="1" as="geometry">
                        <mxPoint x="152.45207547169812" y="204.1237113402062" as="sourcePoint"/>
                        <mxPoint x="265.65962264150943" y="204.1237113402062" as="targetPoint"/>
                    </mxGeometry>
                </mxCell>
                <mxCell id="142" value="EventsPhase" style="swimlane;fontStyle=1;align=center;verticalAlign=top;childLayout=stackLayout;horizontal=1;startSize=26;horizontalStack=0;resizeParent=1;resizeParentMax=0;resizeLast=0;collapsible=1;marginBottom=0;rounded=0;fillColor=#f8cecc;strokeColor=#b85450;" parent="198" vertex="1">
                    <mxGeometry x="480" y="200" width="240" height="130" as="geometry"/>
                </mxCell>
                <mxCell id="143" value="- micro_economic_events: Iterator[Event]&#10;- macro_economic_events: Iterator[Event]" style="text;strokeColor=#b85450;fillColor=#f8cecc;align=left;verticalAlign=top;spacingLeft=4;spacingRight=4;overflow=hidden;rotatable=0;points=[[0,0.5],[1,0.5]];portConstraint=eastwest;rounded=0;" parent="142" vertex="1">
                    <mxGeometry y="26" width="240" height="54" as="geometry"/>
                </mxCell>
                <mxCell id="144" value="" style="line;strokeWidth=1;fillColor=#f8cecc;align=left;verticalAlign=middle;spacingTop=-1;spacingLeft=3;spacingRight=3;rotatable=0;labelPosition=right;points=[];portConstraint=eastwest;strokeColor=#b85450;rounded=0;" parent="142" vertex="1">
                    <mxGeometry y="80" width="240" height="8" as="geometry"/>
                </mxCell>
                <mxCell id="145" value="+ play(Set[Player]): bool" style="text;strokeColor=#b85450;fillColor=#f8cecc;align=left;verticalAlign=top;spacingLeft=4;spacingRight=4;overflow=hidden;rotatable=0;points=[[0,0.5],[1,0.5]];portConstraint=eastwest;rounded=0;" parent="142" vertex="1">
                    <mxGeometry y="88" width="240" height="42" as="geometry"/>
                </mxCell>
                <mxCell id="132" value="Extends" style="endArrow=block;endSize=16;endFill=0;html=1;entryX=0.875;entryY=0.98;entryDx=0;entryDy=0;exitX=0.466;exitY=-0.001;exitDx=0;exitDy=0;entryPerimeter=0;exitPerimeter=0;" parent="198" source="142" target="109" edge="1">
                    <mxGeometry width="160" relative="1" as="geometry">
                        <mxPoint x="681.2209900990099" y="240" as="sourcePoint"/>
                        <mxPoint x="592.1120792079208" y="130" as="targetPoint"/>
                    </mxGeometry>
                </mxCell>
                <mxCell id="196" value="event" style="shape=folder;fontStyle=1;tabWidth=110;tabHeight=30;tabPosition=left;html=1;boundedLbl=1;labelInHeader=1;container=0;collapsible=0;fillColor=none;" parent="1" vertex="1">
                    <mxGeometry x="720" y="750" width="640" height="190" as="geometry"/>
                </mxCell>
                <mxCell id="10" value="Classname" style="swimlane;fontStyle=1;align=center;verticalAlign=top;childLayout=stackLayout;horizontal=1;startSize=26;horizontalStack=0;resizeParent=1;resizeParentMax=0;resizeLast=0;collapsible=1;marginBottom=0;rounded=0;" parent="1" vertex="1">
                    <mxGeometry x="1640" y="166" width="170" height="86" as="geometry"/>
                </mxCell>
                <mxCell id="11" value="+ field: type" style="text;strokeColor=none;fillColor=none;align=left;verticalAlign=top;spacingLeft=4;spacingRight=4;overflow=hidden;rotatable=0;points=[[0,0.5],[1,0.5]];portConstraint=eastwest;rounded=0;" parent="10" vertex="1">
                    <mxGeometry y="26" width="170" height="26" as="geometry"/>
                </mxCell>
                <mxCell id="12" value="" style="line;strokeWidth=1;fillColor=none;align=left;verticalAlign=middle;spacingTop=-1;spacingLeft=3;spacingRight=3;rotatable=0;labelPosition=right;points=[];portConstraint=eastwest;strokeColor=inherit;rounded=0;" parent="10" vertex="1">
                    <mxGeometry y="52" width="170" height="8" as="geometry"/>
                </mxCell>
                <mxCell id="13" value="+ method(type): type" style="text;strokeColor=none;fillColor=none;align=left;verticalAlign=top;spacingLeft=4;spacingRight=4;overflow=hidden;rotatable=0;points=[[0,0.5],[1,0.5]];portConstraint=eastwest;rounded=0;" parent="10" vertex="1">
                    <mxGeometry y="60" width="170" height="26" as="geometry"/>
                </mxCell>
                <mxCell id="14" value="" style="endArrow=circlePlus;startArrow=none;endFill=0;startFill=0;endSize=8;html=1;labelBackgroundColor=none;" parent="1" edge="1">
                    <mxGeometry width="160" relative="1" as="geometry">
                        <mxPoint x="1650" y="463" as="sourcePoint"/>
                        <mxPoint x="1810" y="463" as="targetPoint"/>
                    </mxGeometry>
                </mxCell>
                <mxCell id="16" value="" style="rounded=0;orthogonalLoop=1;jettySize=auto;html=1;endArrow=none;endFill=0;sketch=0;sourcePerimeterSpacing=0;targetPerimeterSpacing=0;" parent="1" target="18" edge="1">
                    <mxGeometry relative="1" as="geometry">
                        <mxPoint x="1650" y="425" as="sourcePoint"/>
                    </mxGeometry>
                </mxCell>
                <mxCell id="17" value="" style="rounded=0;orthogonalLoop=1;jettySize=auto;html=1;endArrow=halfCircle;endFill=0;entryX=0.5;entryY=0.5;endSize=6;strokeWidth=1;sketch=0;" parent="1" target="18" edge="1">
                    <mxGeometry relative="1" as="geometry">
                        <mxPoint x="1800" y="425" as="sourcePoint"/>
                    </mxGeometry>
                </mxCell>
                <mxCell id="18" value="" style="ellipse;whiteSpace=wrap;html=1;align=center;aspect=fixed;resizable=0;points=[];outlineConnect=0;sketch=0;" parent="1" vertex="1">
                    <mxGeometry x="1720" y="420" width="10" height="10" as="geometry"/>
                </mxCell>
                <mxCell id="19" value="Use" style="endArrow=open;endSize=12;dashed=1;html=1;" parent="1" edge="1">
                    <mxGeometry width="160" relative="1" as="geometry">
                        <mxPoint x="1650" y="503" as="sourcePoint"/>
                        <mxPoint x="1810" y="503" as="targetPoint"/>
                    </mxGeometry>
                </mxCell>
                <mxCell id="20" value="" style="endArrow=open;endFill=1;endSize=12;html=1;entryX=0.998;entryY=1.083;entryDx=0;entryDy=0;entryPerimeter=0;exitX=0.022;exitY=-0.038;exitDx=0;exitDy=0;exitPerimeter=0;" parent="1" source="33" target="48" edge="1">
                    <mxGeometry width="160" relative="1" as="geometry">
                        <mxPoint x="270" y="298.57" as="sourcePoint"/>
                        <mxPoint x="430" y="298.57" as="targetPoint"/>
                    </mxGeometry>
                </mxCell>
                <mxCell id="21" value="" style="endArrow=diamondThin;endFill=0;endSize=24;html=1;" parent="1" edge="1">
                    <mxGeometry width="160" relative="1" as="geometry">
                        <mxPoint x="1650" y="583" as="sourcePoint"/>
                        <mxPoint x="1810" y="583" as="targetPoint"/>
                    </mxGeometry>
                </mxCell>
                <mxCell id="22" value="Extends" style="endArrow=block;endSize=16;endFill=0;html=1;" parent="1" edge="1">
                    <mxGeometry width="160" relative="1" as="geometry">
                        <mxPoint x="1650" y="623" as="sourcePoint"/>
                        <mxPoint x="1810" y="623" as="targetPoint"/>
                    </mxGeometry>
                </mxCell>
                <mxCell id="24" value="" style="endArrow=diamondThin;endFill=1;endSize=24;html=1;" parent="1" edge="1">
                    <mxGeometry width="160" relative="1" as="geometry">
                        <mxPoint x="1650" y="653" as="sourcePoint"/>
                        <mxPoint x="1810" y="653" as="targetPoint"/>
                    </mxGeometry>
                </mxCell>
                <mxCell id="25" value="1" style="endArrow=open;html=1;endSize=12;startArrow=diamondThin;startSize=14;startFill=0;edgeStyle=orthogonalEdgeStyle;align=left;verticalAlign=bottom;" parent="1" edge="1">
                    <mxGeometry x="-1" y="3" relative="1" as="geometry">
                        <mxPoint x="1650" y="713" as="sourcePoint"/>
                        <mxPoint x="1810" y="713" as="targetPoint"/>
                    </mxGeometry>
                </mxCell>
                <mxCell id="26" value="1" style="endArrow=open;html=1;endSize=12;startArrow=diamondThin;startSize=14;startFill=1;edgeStyle=orthogonalEdgeStyle;align=left;verticalAlign=bottom;" parent="1" edge="1">
                    <mxGeometry x="-1" y="3" relative="1" as="geometry">
                        <mxPoint x="1650" y="683" as="sourcePoint"/>
                        <mxPoint x="1810" y="683" as="targetPoint"/>
                    </mxGeometry>
                </mxCell>
                <mxCell id="29" value="&lt;p style=&quot;margin:0px;margin-top:4px;text-align:center;&quot;&gt;&lt;i&gt;&amp;lt;&amp;lt;Interface&amp;gt;&amp;gt;&lt;/i&gt;&lt;br/&gt;&lt;b&gt;Interface&lt;/b&gt;&lt;/p&gt;&lt;hr size=&quot;1&quot;/&gt;&lt;p style=&quot;margin:0px;margin-left:4px;&quot;&gt;+ field1: Type&lt;br/&gt;+ field2: Type&lt;/p&gt;&lt;hr size=&quot;1&quot;/&gt;&lt;p style=&quot;margin:0px;margin-left:4px;&quot;&gt;+ method1(Type): Type&lt;br/&gt;+ method2(Type, Type): Type&lt;/p&gt;" style="verticalAlign=top;align=left;overflow=fill;fontSize=12;fontFamily=Helvetica;html=1;" parent="1" vertex="1">
                    <mxGeometry x="1640" y="270" width="170" height="90" as="geometry"/>
                </mxCell>
                <mxCell id="30" value="Player" style="swimlane;fontStyle=1;align=center;verticalAlign=top;childLayout=stackLayout;horizontal=1;startSize=26;horizontalStack=0;resizeParent=1;resizeParentMax=0;resizeLast=0;collapsible=1;marginBottom=0;rounded=0;fillColor=#d5e8d4;strokeColor=#82b366;" parent="1" vertex="1">
                    <mxGeometry x="290" y="80" width="210" height="180" as="geometry"/>
                </mxCell>
                <mxCell id="31" value="- portfolio: Set[Asset]&#10;- capital: int" style="text;strokeColor=#82b366;fillColor=#d5e8d4;align=left;verticalAlign=top;spacingLeft=4;spacingRight=4;overflow=hidden;rotatable=0;points=[[0,0.5],[1,0.5]];portConstraint=eastwest;rounded=0;" parent="30" vertex="1">
                    <mxGeometry y="26" width="210" height="44" as="geometry"/>
                </mxCell>
                <mxCell id="32" value="" style="line;strokeWidth=1;fillColor=#d5e8d4;align=left;verticalAlign=middle;spacingTop=-1;spacingLeft=3;spacingRight=3;rotatable=0;labelPosition=right;points=[];portConstraint=eastwest;strokeColor=#82b366;rounded=0;" parent="30" vertex="1">
                    <mxGeometry y="70" width="210" height="8" as="geometry"/>
                </mxCell>
                <mxCell id="33" value="+ invest(dict[Asset, int]): None&#10;+ earn_money(): None&#10;+ change_strategy(Set[Asset]): None&#10;+ sell(Asset): None&#10;+ buy(Asset): bool" style="text;strokeColor=#82b366;fillColor=#d5e8d4;align=left;verticalAlign=top;spacingLeft=4;spacingRight=4;overflow=hidden;rotatable=0;points=[[0,0.5],[1,0.5]];portConstraint=eastwest;rounded=0;" parent="30" vertex="1">
                    <mxGeometry y="78" width="210" height="102" as="geometry"/>
                </mxCell>
                <mxCell id="47" value="TrendCoin (singleton)" style="swimlane;fontStyle=1;align=center;verticalAlign=top;childLayout=stackLayout;horizontal=1;startSize=26;horizontalStack=0;resizeParent=1;resizeParentMax=0;resizeLast=0;collapsible=1;marginBottom=0;rounded=0;fillColor=#d5e8d4;strokeColor=#82b366;" parent="1" vertex="1">
                    <mxGeometry x="30" y="90" width="180" height="120" as="geometry"/>
                </mxCell>
                <mxCell id="48" value="- trend_up: bool" style="text;strokeColor=#82b366;fillColor=#d5e8d4;align=left;verticalAlign=top;spacingLeft=4;spacingRight=4;overflow=hidden;rotatable=0;points=[[0,0.5],[1,0.5]];portConstraint=eastwest;rounded=0;" parent="47" vertex="1">
                    <mxGeometry y="26" width="180" height="34" as="geometry"/>
                </mxCell>
                <mxCell id="49" value="" style="line;strokeWidth=1;fillColor=#d5e8d4;align=left;verticalAlign=middle;spacingTop=-1;spacingLeft=3;spacingRight=3;rotatable=0;labelPosition=right;points=[];portConstraint=eastwest;strokeColor=#82b366;rounded=0;" parent="47" vertex="1">
                    <mxGeometry y="60" width="180" height="8" as="geometry"/>
                </mxCell>
                <mxCell id="50" value="+ toss(): None&#10;+ get_status(): bool" style="text;strokeColor=#82b366;fillColor=#d5e8d4;align=left;verticalAlign=top;spacingLeft=4;spacingRight=4;overflow=hidden;rotatable=0;points=[[0,0.5],[1,0.5]];portConstraint=eastwest;rounded=0;" parent="47" vertex="1">
                    <mxGeometry y="68" width="180" height="52" as="geometry"/>
                </mxCell>
                <mxCell id="51" value="" style="endArrow=open;endFill=1;endSize=12;html=1;entryX=0.502;entryY=1.019;entryDx=0;entryDy=0;entryPerimeter=0;" parent="1" edge="1">
                    <mxGeometry width="160" relative="1" as="geometry">
                        <mxPoint x="1650" y="550" as="sourcePoint"/>
                        <mxPoint x="1805" y="549.9979999999999" as="targetPoint"/>
                    </mxGeometry>
                </mxCell>
                <mxCell id="55" value="" style="endArrow=diamondThin;endFill=1;endSize=24;html=1;entryX=0.487;entryY=0.982;entryDx=0;entryDy=0;entryPerimeter=0;exitX=0.5;exitY=0;exitDx=0;exitDy=0;" parent="1" source="60" target="46" edge="1">
                    <mxGeometry width="160" relative="1" as="geometry">
                        <mxPoint x="-2" y="750" as="sourcePoint"/>
                        <mxPoint x="170" y="720" as="targetPoint"/>
                    </mxGeometry>
                </mxCell>
                <mxCell id="56" value="OnHold" style="swimlane;fontStyle=1;align=center;verticalAlign=top;childLayout=stackLayout;horizontal=1;startSize=26;horizontalStack=0;resizeParent=1;resizeParentMax=0;resizeLast=0;collapsible=1;marginBottom=0;rounded=0;fillColor=#d5e8d4;strokeColor=#82b366;" parent="1" vertex="1">
                    <mxGeometry x="-190" y="980" width="180" height="60" as="geometry"/>
                </mxCell>
                <mxCell id="58" value="" style="line;strokeWidth=1;fillColor=#d5e8d4;align=left;verticalAlign=middle;spacingTop=-1;spacingLeft=3;spacingRight=3;rotatable=0;labelPosition=right;points=[];portConstraint=eastwest;strokeColor=#82b366;rounded=0;" parent="56" vertex="1">
                    <mxGeometry y="26" width="180" height="8" as="geometry"/>
                </mxCell>
                <mxCell id="59" value="+ switch(asset): None" style="text;strokeColor=#82b366;fillColor=#d5e8d4;align=left;verticalAlign=top;spacingLeft=4;spacingRight=4;overflow=hidden;rotatable=0;points=[[0,0.5],[1,0.5]];portConstraint=eastwest;rounded=0;" parent="56" vertex="1">
                    <mxGeometry y="34" width="180" height="26" as="geometry"/>
                </mxCell>
                <mxCell id="60" value="&lt;p style=&quot;margin:0px;margin-top:4px;text-align:center;&quot;&gt;&lt;i&gt;&amp;lt;&amp;lt;Interface&amp;gt;&amp;gt;&lt;/i&gt;&lt;br&gt;&lt;b&gt;AssetStatus&lt;/b&gt;&lt;/p&gt;&lt;hr size=&quot;1&quot;&gt;&lt;p style=&quot;margin:0px;margin-left:4px;&quot;&gt;&lt;span style=&quot;background-color: initial;&quot;&gt;+ switch(asset): None&lt;/span&gt;&lt;br&gt;&lt;/p&gt;" style="verticalAlign=top;align=left;overflow=fill;fontSize=12;fontFamily=Helvetica;html=1;fillColor=#d5e8d4;strokeColor=#82b366;" parent="1" vertex="1">
                    <mxGeometry x="-85" y="810" width="170" height="70" as="geometry"/>
                </mxCell>
                <mxCell id="61" value="Extends" style="endArrow=block;endSize=16;endFill=0;html=1;entryX=0.447;entryY=0.993;entryDx=0;entryDy=0;entryPerimeter=0;exitX=0.5;exitY=0;exitDx=0;exitDy=0;fillColor=#d5e8d4;strokeColor=#82b366;" parent="1" source="56" target="60" edge="1">
                    <mxGeometry width="160" relative="1" as="geometry">
                        <mxPoint x="-80" y="970" as="sourcePoint"/>
                        <mxPoint x="30" y="920" as="targetPoint"/>
                    </mxGeometry>
                </mxCell>
                <mxCell id="66" value="Extends" style="endArrow=block;endSize=16;endFill=0;html=1;entryX=0.632;entryY=1.011;entryDx=0;entryDy=0;entryPerimeter=0;exitX=0.519;exitY=0.025;exitDx=0;exitDy=0;exitPerimeter=0;fillColor=#d5e8d4;strokeColor=#82b366;" parent="1" source="79" target="60" edge="1">
                    <mxGeometry width="160" relative="1" as="geometry">
                        <mxPoint x="120" y="980" as="sourcePoint"/>
                        <mxPoint x="0.9900000000002365" y="909.3699999999999" as="targetPoint"/>
                    </mxGeometry>
                </mxCell>
                <mxCell id="79" value="Active" style="swimlane;fontStyle=1;align=center;verticalAlign=top;childLayout=stackLayout;horizontal=1;startSize=26;horizontalStack=0;resizeParent=1;resizeParentMax=0;resizeLast=0;collapsible=1;marginBottom=0;rounded=0;fillColor=#d5e8d4;strokeColor=#82b366;" parent="1" vertex="1">
                    <mxGeometry x="30" y="980" width="180" height="60" as="geometry"/>
                </mxCell>
                <mxCell id="80" value="" style="line;strokeWidth=1;fillColor=#d5e8d4;align=left;verticalAlign=middle;spacingTop=-1;spacingLeft=3;spacingRight=3;rotatable=0;labelPosition=right;points=[];portConstraint=eastwest;strokeColor=#82b366;rounded=0;" parent="79" vertex="1">
                    <mxGeometry y="26" width="180" height="8" as="geometry"/>
                </mxCell>
                <mxCell id="81" value="+ switch(asset): None" style="text;strokeColor=#82b366;fillColor=#d5e8d4;align=left;verticalAlign=top;spacingLeft=4;spacingRight=4;overflow=hidden;rotatable=0;points=[[0,0.5],[1,0.5]];portConstraint=eastwest;rounded=0;" parent="79" vertex="1">
                    <mxGeometry y="34" width="180" height="26" as="geometry"/>
                </mxCell>
                <mxCell id="82" value="" style="endArrow=diamondThin;endFill=1;endSize=24;html=1;entryX=0.593;entryY=0.994;entryDx=0;entryDy=0;entryPerimeter=0;exitX=0.5;exitY=0;exitDx=0;exitDy=0;" parent="1" source="86" target="46" edge="1">
                    <mxGeometry width="160" relative="1" as="geometry">
                        <mxPoint x="418" y="750" as="sourcePoint"/>
                        <mxPoint x="604.4450000000002" y="668.704" as="targetPoint"/>
                    </mxGeometry>
                </mxCell>
                <mxCell id="83" value="Long" style="swimlane;fontStyle=1;align=center;verticalAlign=top;childLayout=stackLayout;horizontal=1;startSize=26;horizontalStack=0;resizeParent=1;resizeParentMax=0;resizeLast=0;collapsible=1;marginBottom=0;rounded=0;fillColor=#d5e8d4;strokeColor=#82b366;" parent="1" vertex="1">
                    <mxGeometry x="230" y="980" width="180" height="60" as="geometry"/>
                </mxCell>
                <mxCell id="84" value="" style="line;strokeWidth=1;fillColor=#d5e8d4;align=left;verticalAlign=middle;spacingTop=-1;spacingLeft=3;spacingRight=3;rotatable=0;labelPosition=right;points=[];portConstraint=eastwest;strokeColor=#82b366;rounded=0;" parent="83" vertex="1">
                    <mxGeometry y="26" width="180" height="8" as="geometry"/>
                </mxCell>
                <mxCell id="85" value="+ switch(asset): None" style="text;strokeColor=#82b366;fillColor=#d5e8d4;align=left;verticalAlign=top;spacingLeft=4;spacingRight=4;overflow=hidden;rotatable=0;points=[[0,0.5],[1,0.5]];portConstraint=eastwest;rounded=0;" parent="83" vertex="1">
                    <mxGeometry y="34" width="180" height="26" as="geometry"/>
                </mxCell>
                <mxCell id="86" value="&lt;p style=&quot;margin:0px;margin-top:4px;text-align:center;&quot;&gt;&lt;i&gt;&amp;lt;&amp;lt;Interface&amp;gt;&amp;gt;&lt;/i&gt;&lt;br&gt;&lt;b&gt;InvestmentStatus&lt;/b&gt;&lt;/p&gt;&lt;hr size=&quot;1&quot;&gt;&lt;p style=&quot;margin:0px;margin-left:4px;&quot;&gt;&lt;span style=&quot;background-color: initial;&quot;&gt;+ switch(asset): None&lt;/span&gt;&lt;br&gt;&lt;/p&gt;" style="verticalAlign=top;align=left;overflow=fill;fontSize=12;fontFamily=Helvetica;html=1;fillColor=#d5e8d4;strokeColor=#82b366;" parent="1" vertex="1">
                    <mxGeometry x="335" y="810" width="170" height="70" as="geometry"/>
                </mxCell>
                <mxCell id="87" value="Extends" style="endArrow=block;endSize=16;endFill=0;html=1;entryX=0.447;entryY=0.993;entryDx=0;entryDy=0;entryPerimeter=0;exitX=0.5;exitY=0;exitDx=0;exitDy=0;fillColor=#d5e8d4;strokeColor=#82b366;" parent="1" source="83" target="86" edge="1">
                    <mxGeometry width="160" relative="1" as="geometry">
                        <mxPoint x="340" y="970" as="sourcePoint"/>
                        <mxPoint x="450" y="920" as="targetPoint"/>
                    </mxGeometry>
                </mxCell>
                <mxCell id="88" value="Extends" style="endArrow=block;endSize=16;endFill=0;html=1;entryX=0.632;entryY=1.011;entryDx=0;entryDy=0;entryPerimeter=0;exitX=0.519;exitY=0.025;exitDx=0;exitDy=0;exitPerimeter=0;fillColor=#d5e8d4;strokeColor=#82b366;" parent="1" source="89" target="86" edge="1">
                    <mxGeometry width="160" relative="1" as="geometry">
                        <mxPoint x="540" y="980" as="sourcePoint"/>
                        <mxPoint x="420.99000000000024" y="909.3699999999999" as="targetPoint"/>
                    </mxGeometry>
                </mxCell>
                <mxCell id="89" value="Short" style="swimlane;fontStyle=1;align=center;verticalAlign=top;childLayout=stackLayout;horizontal=1;startSize=26;horizontalStack=0;resizeParent=1;resizeParentMax=0;resizeLast=0;collapsible=1;marginBottom=0;rounded=0;fillColor=#d5e8d4;strokeColor=#82b366;" parent="1" vertex="1">
                    <mxGeometry x="450" y="980" width="180" height="60" as="geometry"/>
                </mxCell>
                <mxCell id="90" value="" style="line;strokeWidth=1;fillColor=#d5e8d4;align=left;verticalAlign=middle;spacingTop=-1;spacingLeft=3;spacingRight=3;rotatable=0;labelPosition=right;points=[];portConstraint=eastwest;strokeColor=#82b366;rounded=0;" parent="89" vertex="1">
                    <mxGeometry y="26" width="180" height="8" as="geometry"/>
                </mxCell>
                <mxCell id="91" value="+ switch(asset): None" style="text;strokeColor=#82b366;fillColor=#d5e8d4;align=left;verticalAlign=top;spacingLeft=4;spacingRight=4;overflow=hidden;rotatable=0;points=[[0,0.5],[1,0.5]];portConstraint=eastwest;rounded=0;" parent="89" vertex="1">
                    <mxGeometry y="34" width="180" height="26" as="geometry"/>
                </mxCell>
                <mxCell id="94" value="Package" style="shape=folder;fontStyle=1;tabWidth=110;tabHeight=30;tabPosition=left;html=1;boundedLbl=1;labelInHeader=1;container=1;collapsible=0;fillColor=none;" parent="1" vertex="1">
                    <mxGeometry x="1640" y="30" width="170" height="120" as="geometry"/>
                </mxCell>
                <mxCell id="95" value="" style="html=1;resizeWidth=1;resizeHeight=1;fillColor=none;part=1;connectable=0;allowArrows=0;deletable=0;" parent="94" vertex="1">
                    <mxGeometry width="170" height="90" relative="1" as="geometry">
                        <mxPoint y="30" as="offset"/>
                    </mxGeometry>
                </mxCell>
                <mxCell id="110" value="" style="endArrow=diamondThin;endFill=1;endSize=24;html=1;exitX=0.5;exitY=0;exitDx=0;exitDy=0;entryX=0.487;entryY=1.043;entryDx=0;entryDy=0;entryPerimeter=0;" parent="1" source="109" target="99" edge="1">
                    <mxGeometry width="160" relative="1" as="geometry">
                        <mxPoint x="750" y="500" as="sourcePoint"/>
                        <mxPoint x="880" y="470" as="targetPoint"/>
                    </mxGeometry>
                </mxCell>
                <mxCell id="118" value="2-5" style="endArrow=open;html=1;endSize=12;startArrow=diamondThin;startSize=14;startFill=0;edgeStyle=orthogonalEdgeStyle;align=left;verticalAlign=bottom;entryX=1.021;entryY=0.073;entryDx=0;entryDy=0;entryPerimeter=0;exitX=-0.009;exitY=-0.013;exitDx=0;exitDy=0;exitPerimeter=0;" parent="1" source="99" target="33" edge="1">
                    <mxGeometry x="-0.7968" y="-6" relative="1" as="geometry">
                        <mxPoint x="570" y="320" as="sourcePoint"/>
                        <mxPoint x="730" y="320" as="targetPoint"/>
                        <mxPoint as="offset"/>
                    </mxGeometry>
                </mxCell>
                <mxCell id="146" value="1, *" style="endArrow=open;html=1;endSize=12;startArrow=diamondThin;startSize=14;startFill=1;edgeStyle=orthogonalEdgeStyle;align=left;verticalAlign=bottom;exitX=0.449;exitY=1.1;exitDx=0;exitDy=0;exitPerimeter=0;" parent="1" source="145" target="186" edge="1">
                    <mxGeometry x="-0.4702" y="-20" relative="1" as="geometry">
                        <mxPoint x="1590" y="760" as="sourcePoint"/>
                        <mxPoint x="1597.5" y="850" as="targetPoint"/>
                        <Array as="points">
                            <mxPoint x="1320" y="674"/>
                            <mxPoint x="1320" y="750"/>
                            <mxPoint x="1035" y="750"/>
                        </Array>
                        <mxPoint as="offset"/>
                    </mxGeometry>
                </mxCell>
                <mxCell id="191" value="Type(Enum)" style="swimlane;fontStyle=1;align=center;verticalAlign=top;childLayout=stackLayout;horizontal=1;startSize=26;horizontalStack=0;resizeParent=1;resizeParentMax=0;resizeLast=0;collapsible=1;marginBottom=0;rounded=0;fillColor=#d5e8d4;strokeColor=#82b366;" parent="1" vertex="1">
                    <mxGeometry x="-190" y="436" width="155" height="88" as="geometry"/>
                </mxCell>
                <mxCell id="192" value="- STOCK: int&#10;- BOND: int&#10;- CRYPTO: int" style="text;strokeColor=#82b366;fillColor=#d5e8d4;align=left;verticalAlign=top;spacingLeft=4;spacingRight=4;overflow=hidden;rotatable=0;points=[[0,0.5],[1,0.5]];portConstraint=eastwest;rounded=0;" parent="191" vertex="1">
                    <mxGeometry y="26" width="155" height="54" as="geometry"/>
                </mxCell>
                <mxCell id="193" value="" style="line;strokeWidth=1;fillColor=#d5e8d4;align=left;verticalAlign=middle;spacingTop=-1;spacingLeft=3;spacingRight=3;rotatable=0;labelPosition=right;points=[];portConstraint=eastwest;strokeColor=#82b366;rounded=0;" parent="191" vertex="1">
                    <mxGeometry y="80" width="155" height="8" as="geometry"/>
                </mxCell>
                <mxCell id="195" value="" style="endArrow=diamondThin;endFill=1;endSize=24;html=1;entryX=0;entryY=0.5;entryDx=0;entryDy=0;exitX=1.003;exitY=0.401;exitDx=0;exitDy=0;exitPerimeter=0;" parent="1" source="192" target="44" edge="1">
                    <mxGeometry width="160" relative="1" as="geometry">
                        <mxPoint x="-50" y="524" as="sourcePoint"/>
                        <mxPoint x="110" y="524" as="targetPoint"/>
                    </mxGeometry>
                </mxCell>
                <mxCell id="210" value="" style="endArrow=diamondThin;endFill=0;endSize=24;html=1;entryX=0.5;entryY=1.053;entryDx=0;entryDy=0;entryPerimeter=0;exitX=0.5;exitY=0;exitDx=0;exitDy=0;" parent="1" source="43" target="33" edge="1">
                    <mxGeometry width="160" relative="1" as="geometry">
                        <mxPoint x="380" y="510" as="sourcePoint"/>
                        <mxPoint x="670" y="440" as="targetPoint"/>
                    </mxGeometry>
                </mxCell>
                <mxCell id="175" value="assets.json&lt;br&gt;(contains asset names, types, and interest rates)" style="whiteSpace=wrap;html=1;shape=mxgraph.basic.document;fillColor=#f8cecc;strokeColor=#b85450;" parent="1" vertex="1">
                    <mxGeometry x="-390" y="530" width="70" height="130" as="geometry"/>
                </mxCell>
                <mxCell id="43" value="Asset" style="swimlane;fontStyle=1;align=center;verticalAlign=top;childLayout=stackLayout;horizontal=1;startSize=26;horizontalStack=0;resizeParent=1;resizeParentMax=0;resizeLast=0;collapsible=1;marginBottom=0;rounded=0;fillColor=#d5e8d4;strokeColor=#82b366;" parent="1" vertex="1">
                    <mxGeometry x="75" y="440" width="235" height="210" as="geometry"/>
                </mxCell>
                <mxCell id="44" value="- name: str&#10;- cost: int&#10;- interest_rate: float (by type)&#10;- industry: string&#10;- last_strategy_change_turn: intÂ " style="text;strokeColor=#82b366;fillColor=#d5e8d4;align=left;verticalAlign=top;spacingLeft=4;spacingRight=4;overflow=hidden;rotatable=0;points=[[0,0.5],[1,0.5]];portConstraint=eastwest;rounded=0;" parent="43" vertex="1">
                    <mxGeometry y="26" width="235" height="104" as="geometry"/>
                </mxCell>
                <mxCell id="45" value="" style="line;strokeWidth=1;fillColor=#d5e8d4;align=left;verticalAlign=middle;spacingTop=-1;spacingLeft=3;spacingRight=3;rotatable=0;labelPosition=right;points=[];portConstraint=eastwest;strokeColor=#82b366;rounded=0;" parent="43" vertex="1">
                    <mxGeometry y="130" width="235" height="8" as="geometry"/>
                </mxCell>
                <mxCell id="46" value="+ change_status(): None&#10;+ is_on_hold():" style="text;strokeColor=#82b366;fillColor=#d5e8d4;align=left;verticalAlign=top;spacingLeft=4;spacingRight=4;overflow=hidden;rotatable=0;points=[[0,0.5],[1,0.5]];portConstraint=eastwest;rounded=0;" parent="43" vertex="1">
                    <mxGeometry y="138" width="235" height="72" as="geometry"/>
                </mxCell>
                <mxCell id="176" value="Use" style="endArrow=open;endSize=12;dashed=1;html=1;exitX=-0.001;exitY=1.019;exitDx=0;exitDy=0;entryX=1;entryY=0.5;entryDx=0;entryDy=0;entryPerimeter=0;exitPerimeter=0;" parent="1" source="44" target="175" edge="1">
                    <mxGeometry x="-0.0087" width="160" relative="1" as="geometry">
                        <mxPoint x="1300.2349999999997" y="792.414" as="sourcePoint"/>
                        <mxPoint x="312.8849999999993" y="603.0160000000001" as="targetPoint"/>
                        <mxPoint as="offset"/>
                        <Array as="points"/>
                    </mxGeometry>
                </mxCell>
                <mxCell id="197" value="" style="html=1;resizeWidth=1;resizeHeight=1;fillColor=none;part=1;connectable=0;allowArrows=0;deletable=0;" parent="1" vertex="1">
                    <mxGeometry x="720" y="780" width="650" height="160" as="geometry">
                        <mxPoint y="30" as="offset"/>
                    </mxGeometry>
                </mxCell>
                <mxCell id="169" value="events.json&lt;br&gt;(contains event names, descriptions, and impacted asset types)" style="whiteSpace=wrap;html=1;shape=mxgraph.basic.document;fillColor=#f8cecc;strokeColor=#b85450;" parent="1" vertex="1">
                    <mxGeometry x="1260" y="790" width="80" height="120" as="geometry"/>
                </mxCell>
                <mxCell id="186" value="&lt;p style=&quot;margin:0px;margin-top:4px;text-align:center;&quot;&gt;&lt;b&gt;Event&lt;/b&gt;&lt;/p&gt;&lt;hr size=&quot;1&quot;&gt;&lt;p style=&quot;margin:0px;margin-left:4px;&quot;&gt;&lt;/p&gt;&amp;nbsp; - name: str&lt;br&gt;&amp;nbsp; - description: str&lt;br&gt;&amp;nbsp; - impacted_asset_types: Set[str]&lt;p style=&quot;margin:0px;margin-left:4px;&quot;&gt;+ take_place(): None&lt;/p&gt;" style="verticalAlign=top;align=left;overflow=fill;fontSize=12;fontFamily=Helvetica;html=1;fillColor=#fff2cc;strokeColor=#d6b656;" parent="1" vertex="1">
                    <mxGeometry x="930" y="810" width="210" height="110" as="geometry"/>
                </mxCell>
                <mxCell id="168" value="Use" style="endArrow=open;endSize=12;dashed=1;html=1;exitX=1.013;exitY=0.41;exitDx=0;exitDy=0;exitPerimeter=0;entryX=0;entryY=0.5;entryDx=0;entryDy=0;entryPerimeter=0;fillColor=#f8cecc;strokeColor=#322f2f;" parent="1" source="186" target="169" edge="1">
                    <mxGeometry width="160" relative="1" as="geometry">
                        <mxPoint x="1160" y="1100" as="sourcePoint"/>
                        <mxPoint x="1360" y="1200" as="targetPoint"/>
                    </mxGeometry>
                </mxCell>
                <mxCell id="213" value="Use" style="endArrow=open;endSize=12;dashed=1;html=1;exitX=0;exitY=0.5;exitDx=0;exitDy=0;entryX=1.011;entryY=0.028;entryDx=0;entryDy=0;entryPerimeter=0;" parent="1" source="186" target="46" edge="1">
                    <mxGeometry width="160" relative="1" as="geometry">
                        <mxPoint x="920" y="1040" as="sourcePoint"/>
                        <mxPoint x="320" y="580" as="targetPoint"/>
                        <Array as="points">
                            <mxPoint x="620" y="760"/>
                        </Array>
                    </mxGeometry>
                </mxCell>
                <mxCell id="215" value="" style="endArrow=open;endFill=1;endSize=12;html=1;entryX=1.012;entryY=0.9;entryDx=0;entryDy=0;entryPerimeter=0;exitX=0;exitY=0.5;exitDx=0;exitDy=0;" parent="1" source="109" target="44" edge="1">
                    <mxGeometry width="160" relative="1" as="geometry">
                        <mxPoint x="1660" y="560" as="sourcePoint"/>
                        <mxPoint x="1815" y="559.998" as="targetPoint"/>
                    </mxGeometry>
                </mxCell>
            </root>
        </mxGraphModel>
    </diagram>
</mxfile>